IKResults
version=1
nRows=16
nColumns=24
inDegrees=yes

Units are S.I. units (second, meters, Newtons, ...)
If the header above contains a line with 'inDegrees', this indicates whether rotational values are in degrees (yes) or radians (no).

endheader
time	pelvis_tilt	pelvis_list	pelvis_rotation	pelvis_tx	pelvis_ty	pelvis_tz	hip_flexion_r	hip_adduction_r	hip_rotation_r	knee_angle_r	ankle_angle_r	subtalar_angle_r	mtp_angle_r	hip_flexion_l	hip_adduction_l	hip_rotation_l	knee_angle_l	ankle_angle_l	subtalar_angle_l	mtp_angle_l	lumbar_extension	lumbar_bending	lumbar_rotation
1.600000	9.825697	5.837681	-181.918520	0.315814	0.332494	-1.229412	102.496084	-30.125994	-0.354311	-141.172825	46.322212	14.099776	0.000000	116.622757	-35.116628	20.957879	-140.208821	43.655307	21.447514	0.000000	-13.669678	5.431674	6.890437
1.605000	9.798507	5.883216	-181.886926	0.315758	0.332251	-1.229239	102.493188	-30.204773	-0.368239	-141.214001	46.306148	14.085328	0.000000	116.655923	-35.057748	21.015429	-140.256346	43.657581	21.442740	0.000000	-13.698254	5.503536	6.889296
1.610000	9.666370	5.894723	-181.892414	0.315909	0.331840	-1.229263	102.472461	-30.196465	-0.289323	-141.315875	46.255588	14.186069	0.000000	116.642747	-35.047956	21.113563	-140.334678	43.639512	21.460503	0.000000	-13.919700	5.679724	6.458280
1.615000	9.674876	5.868332	-181.946059	0.316062	0.331610	-1.229291	102.557773	-30.147738	-0.247148	-141.333253	46.259444	14.234289	0.000000	116.677846	-35.090338	21.115307	-140.357800	43.675374	21.444451	0.000000	-13.939230	5.645114	6.506484
1.620000	9.667061	5.860519	-181.926650	0.316165	0.331380	-1.229305	102.594969	-30.177746	-0.219570	-141.353326	46.247930	14.252789	0.000000	116.705316	-35.059668	21.107884	-140.378811	43.664173	21.457846	0.000000	-13.963344	5.630411	6.529397
1.625000	9.775240	5.858700	-181.937337	0.316107	0.331289	-1.229206	102.686866	-30.216995	-0.249176	-141.305522	46.313573	14.248961	0.000000	116.808336	-35.053620	21.090969	-140.376236	43.666606	21.464812	0.000000	-13.794958	5.484879	6.963327
1.630000	9.770067	5.869363	-181.929948	0.316150	0.331066	-1.229158	102.725535	-30.249348	-0.237482	-141.332726	46.269417	14.263562	0.000000	116.861591	-35.032029	21.122556	-140.405862	43.648091	21.472688	0.000000	-13.814544	5.499676	6.976330
1.635000	9.708192	5.876640	-181.938621	0.316243	0.330753	-1.229097	102.753044	-30.264715	-0.212173	-141.390489	46.233609	14.263982	0.000000	116.880873	-35.026317	21.171259	-140.464271	43.641028	21.458275	0.000000	-13.937915	5.639830	6.664604
1.640000	9.762842	5.911569	-181.967892	0.316173	0.330638	-1.228897	102.806097	-30.296488	-0.238220	-141.390317	46.225942	14.295250	0.000000	116.974498	-35.027509	21.214134	-140.500619	43.645584	21.431171	0.000000	-13.839299	5.569719	7.036390
1.645000	9.740519	5.967971	-181.935065	0.316135	0.330477	-1.228730	102.766415	-30.385299	-0.271079	-141.402567	46.221508	14.345262	0.000000	117.011808	-34.966392	21.277701	-140.539163	43.639750	21.448907	0.000000	-13.866408	5.660485	7.006819
1.650000	9.859213	5.899049	-181.959910	0.316360	0.329968	-1.228678	103.024255	-30.361184	-0.104994	-141.440068	46.154416	14.517786	0.000000	117.147709	-34.959178	21.201771	-140.566438	43.629503	21.436386	0.000000	-13.743105	5.588895	7.028317
1.655000	9.721855	5.844963	-181.918285	0.316558	0.329606	-1.228663	103.032165	-30.400790	-0.020307	-141.493054	46.203344	14.428840	0.000000	117.049809	-34.930085	21.167348	-140.613610	43.601860	21.428497	0.000000	-13.971164	5.709975	6.511679
1.660000	9.629056	5.892505	-181.921603	0.316499	0.329643	-1.228626	102.921507	-30.434733	-0.063626	-141.507463	46.190896	14.501223	0.000000	116.998811	-34.940180	21.233242	-140.637623	43.661492	21.429496	0.000000	-14.084509	5.757244	6.560144
1.665000	9.608991	5.909028	-181.927965	0.316539	0.329497	-1.228524	102.947075	-30.465831	-0.060007	-141.533348	46.177439	14.511686	0.000000	117.017183	-34.925287	21.261533	-140.673993	43.663112	21.424437	0.000000	-14.114538	5.779751	6.612641
1.670000	9.774265	5.899092	-181.972245	0.316541	0.329302	-1.228328	103.139131	-30.478524	-0.030857	-141.505741	46.177532	14.571170	0.000000	117.177871	-34.929990	21.223838	-140.693935	43.688797	21.393818	0.000000	-13.886726	5.622023	7.093980
1.675000	9.614256	5.966398	-181.942928	0.316678	0.329056	-1.228429	103.003698	-30.515476	-0.088587	-141.564537	46.135601	14.577402	0.000000	117.105191	-34.913505	21.288926	-140.752833	43.751557	21.342122	0.000000	-14.129937	5.859831	6.658724
